<svg id="Layer_2" data-name="Layer 2" xmlns="http://www.w3.org/2000/svg" viewBox="0 0 108.84 167.25"><defs><style>.cls-1{fill:#009fe3;}.cls-2{fill:#52ae32;}</style></defs><title>Artboard 2</title><path class="cls-1" d="M58.12,128.36l50.72,0C61.43,105.5,64.3,74,58.12,0Z"/><path class="cls-2" d="M50.72,148.92,0,148.88C47.41,126.06,44.54,94.56,50.72,20.56Z"/><path class="cls-1" d="M60,138.83v.5c0,.68,0,1.28,0,1.8s0,1,.08,1.55a3.19,3.19,0,0,0-.45,0h-1.1a3,3,0,0,0-.45,0c0-.51,0-1,.07-1.55s0-1.12,0-1.8v-1.66c0-.67,0-1.27,0-1.8s0-1.05-.07-1.58l.45,0a4.61,4.61,0,0,0,.55,0l.75,0c.28,0,.63,0,1,0s.58,0,.79,0a4,4,0,0,1,.57.07,1.6,1.6,0,0,1,.42.13,1.35,1.35,0,0,1,.33.19,1.9,1.9,0,0,1,.8,1.61,2.15,2.15,0,0,1-.49,1.45,2.7,2.7,0,0,1-1.41.79c.4.7.81,1.38,1.26,2.07l1.34,2.05a5,5,0,0,0-.54,0H62.82a5.07,5.07,0,0,0-.55,0l-2.19-3.85Zm1.93-2.24a2.81,2.81,0,0,0-.11-.86,1,1,0,0,0-.34-.48,1.21,1.21,0,0,0-.58-.21,5.45,5.45,0,0,0-.86,0c0,1.1,0,2.21,0,3.32l.14,0h.13a1.63,1.63,0,0,0,1.23-.43A1.78,1.78,0,0,0,61.9,136.59Z"/><path class="cls-1" d="M64.94,139.91a3.66,3.66,0,0,1,.25-1.43,3.1,3.1,0,0,1,.66-1,2.71,2.71,0,0,1,1-.61,3.08,3.08,0,0,1,1.12-.2,3,3,0,0,1,2.21.8,3,3,0,0,1,.78,2.19A3.81,3.81,0,0,1,70.7,141a2.91,2.91,0,0,1-.62,1,2.51,2.51,0,0,1-.94.63,3.38,3.38,0,0,1-1.21.21,3.91,3.91,0,0,1-1.08-.15,2.6,2.6,0,0,1-1-.5,2.63,2.63,0,0,1-.69-.9A3.36,3.36,0,0,1,64.94,139.91Zm4.17-.46a4.09,4.09,0,0,0-.27-1.66.89.89,0,0,0-.89-.59,1,1,0,0,0-.88.66,4.82,4.82,0,0,0-.32,2.06,7,7,0,0,0,.06,1,2.63,2.63,0,0,0,.2.76,1.23,1.23,0,0,0,.36.51.88.88,0,0,0,.57.18C68.72,142.32,69.11,141.37,69.11,139.45Z"/><path class="cls-1" d="M72.35,141.55a1.75,1.75,0,0,0,.29.32,1.45,1.45,0,0,0,.41.22,1.57,1.57,0,0,0,.56.09.93.93,0,0,0,.65-.22.66.66,0,0,0,.24-.48.54.54,0,0,0-.21-.45,2.31,2.31,0,0,0-.52-.31c-.21-.1-.43-.19-.68-.29a3.11,3.11,0,0,1-.67-.37,1.78,1.78,0,0,1-.52-.57,1.66,1.66,0,0,1-.21-.88,1.87,1.87,0,0,1,.19-.88,1.74,1.74,0,0,1,.49-.61,2.27,2.27,0,0,1,.69-.36,2.92,2.92,0,0,1,.77-.11,2.74,2.74,0,0,1,.9.14,3.81,3.81,0,0,1,.82.43,2.76,2.76,0,0,0-.19.53c0,.18-.08.37-.11.54h-.34a1.44,1.44,0,0,0-.12-.32,1.34,1.34,0,0,0-.59-.6,1.06,1.06,0,0,0-.5-.1,1,1,0,0,0-.61.19.64.64,0,0,0-.25.52.59.59,0,0,0,.21.47,2.06,2.06,0,0,0,.53.31c.21.09.44.18.7.27a3.17,3.17,0,0,1,.69.34,1.89,1.89,0,0,1,.53.56,1.57,1.57,0,0,1,.22.88,2,2,0,0,1-.2.92,1.81,1.81,0,0,1-.52.64,2.37,2.37,0,0,1-.75.36,3.68,3.68,0,0,1-.89.11,3.11,3.11,0,0,1-1-.16,3.73,3.73,0,0,1-.69-.33,6.76,6.76,0,0,0,.18-1.17h.3A2.58,2.58,0,0,0,72.35,141.55Z"/><path class="cls-1" d="M76.79,135.5c0-.67,0-1.34-.07-2l.4.05h1l.4-.05c0,.34,0,.69,0,1s0,.75,0,1.18,0,.95,0,1.51,0,1.24,0,2a1,1,0,0,0,0,.22s0,.05.05.05.11-.06.24-.19.29-.31.49-.54l.7-.85.87-1.1.28,0,.29,0,.29,0,.39,0c-.1.12-.26.28-.46.5L81,138l-.62.64-.43.45s.11.16.22.34l.39.64c.16.25.32.52.49.8s.33.55.49.8l.39.67.22.38-.49,0h-.94a3.55,3.55,0,0,0-.46,0,1.48,1.48,0,0,1-.2-.31c-.1-.16-.2-.35-.32-.55l-.37-.66q-.18-.33-.36-.63c-.11-.19-.21-.34-.3-.47s-.15-.18-.18-.18-.06,0-.07.08a3,3,0,0,0,0,.45v.68c0,.11,0,.24,0,.39s0,.31,0,.47,0,.31,0,.45a1.61,1.61,0,0,0,0,.28l-.44,0h-.88a3.15,3.15,0,0,0-.44,0c0-.66.06-1.33.07-2s0-1.4,0-2.2v-.79C76.82,136.9,76.81,136.17,76.79,135.5Z"/><path class="cls-1" d="M82.91,134.5a1,1,0,0,1,1-1,1,1,0,0,1,1,1,1,1,0,0,1-1,1,1,1,0,0,1-1-1Zm.14,5c0-.5,0-1,0-1.4s0-.87-.08-1.31l.4,0,.51,0a5.63,5.63,0,0,0,.92-.06c0,.44-.07.87-.08,1.31s0,.9,0,1.4V140c0,.5,0,1,0,1.41s0,.86.08,1.27a2.25,2.25,0,0,0-.4,0h-1a2.25,2.25,0,0,0-.4,0c0-.41.06-.83.08-1.27s0-.91,0-1.41Z"/><path class="cls-1" d="M86.42,135.5c0-.67,0-1.34-.07-2l.4.05h1l.4-.05c0,.69-.06,1.36-.07,2s0,1.4,0,2.2v.79c0,.8,0,1.53,0,2.2s0,1.33.07,2a2.17,2.17,0,0,0-.4,0h-1a2.25,2.25,0,0,0-.4,0c0-.66.06-1.33.07-2s0-1.4,0-2.2v-.79C86.45,136.9,86.44,136.17,86.42,135.5Z"/><path class="cls-1" d="M95,138.49c0,.8,0,1.53,0,2.2s0,1.33.07,2a2.17,2.17,0,0,0-.4,0h-1a1.56,1.56,0,0,0-.35,0,.42.42,0,0,0,0-.16c0-.09,0-.19,0-.31a1.8,1.8,0,0,0,0-.31c0-.1,0-.16,0-.19l0,0a2,2,0,0,1-.63.85,1.83,1.83,0,0,1-1.11.3,2.23,2.23,0,0,1-1.07-.24,2,2,0,0,1-.72-.67,3.23,3.23,0,0,1-.41-1,5.32,5.32,0,0,1-.14-1.23,4,4,0,0,1,.19-1.22,3.12,3.12,0,0,1,.5-1,2.29,2.29,0,0,1,.75-.64,2,2,0,0,1,1.9,0,1.6,1.6,0,0,1,.64.65h0q0-1.1,0-2.07c0-.65,0-1.31-.07-2l.4.05h1l.4-.05c0,.69,0,1.36-.07,2s0,1.4,0,2.2Zm-3.83,1.39a5.13,5.13,0,0,0,.09,1.05,2.06,2.06,0,0,0,.23.69,1.05,1.05,0,0,0,.33.38.75.75,0,0,0,.4.12,1,1,0,0,0,.83-.57,4.14,4.14,0,0,0,.32-1.89,3.3,3.3,0,0,0-.31-1.65.88.88,0,0,0-.78-.52.82.82,0,0,0-.39.11.93.93,0,0,0-.35.38,2.35,2.35,0,0,0-.26.74A5.37,5.37,0,0,0,91.17,139.88Z"/><path class="cls-1" d="M98,139.76a3.87,3.87,0,0,0,.1.92,2,2,0,0,0,.3.73,1.41,1.41,0,0,0,.51.49,1.43,1.43,0,0,0,.72.18,2.27,2.27,0,0,0,1.51-.55l.14.11-.27.68a2.39,2.39,0,0,1-.73.38,3.78,3.78,0,0,1-1.12.14,3.88,3.88,0,0,1-1.14-.17,2.39,2.39,0,0,1-.94-.54,2.55,2.55,0,0,1-.65-1,3.64,3.64,0,0,1-.24-1.39,3.92,3.92,0,0,1,.22-1.38,2.69,2.69,0,0,1,.59-1,2.43,2.43,0,0,1,.89-.59,3.23,3.23,0,0,1,1.13-.19,2.35,2.35,0,0,1,1.85.7,2.89,2.89,0,0,1,.64,2v.25a.5.5,0,0,1,0,.15Zm1.88-.55a4.59,4.59,0,0,0-.23-1.46.7.7,0,0,0-.67-.55.65.65,0,0,0-.46.18,1.29,1.29,0,0,0-.29.47,2.94,2.94,0,0,0-.16.65,5.69,5.69,0,0,0-.07.71Z"/><path class="cls-1" d="M59.6,147.84c0-.19,0-.34,0-.43l-.45,0-.58,0c-.2,0-.41,0-.62,0l-.59.06c0-.09,0-.18.05-.27a2.35,2.35,0,0,0,0-.26,2.44,2.44,0,0,0,0-.27c0-.09,0-.18-.05-.27l.75,0,.69,0h3.47l.67,0,.7,0a2.51,2.51,0,0,0,0,.27,1.23,1.23,0,0,0,0,.27,1.18,1.18,0,0,0,0,.26,2.51,2.51,0,0,0,0,.27l-.55-.06c-.21,0-.41,0-.61,0l-.56,0-.45,0a.72.72,0,0,0,0,.17,2.09,2.09,0,0,0,0,.26v3.7q0,1,0,1.8c0,.53,0,1,.07,1.54l-.45,0H60l-.45,0c0-.5.05-1,.07-1.54s0-1.12,0-1.8v-3.7Z"/><path class="cls-1" d="M64.85,152a4.37,4.37,0,0,0,.1.91,2.49,2.49,0,0,0,.3.74,1.49,1.49,0,0,0,.51.49,1.44,1.44,0,0,0,.73.18,2.31,2.31,0,0,0,1.5-.55l.15.11-.27.68a2.39,2.39,0,0,1-.73.37A3.54,3.54,0,0,1,66,155a3.81,3.81,0,0,1-1.13-.16,2.33,2.33,0,0,1-.95-.55,2.72,2.72,0,0,1-.65-1,3.85,3.85,0,0,1-.23-1.39,4.09,4.09,0,0,1,.21-1.38,2.69,2.69,0,0,1,.59-1,2.28,2.28,0,0,1,.9-.59,3.19,3.19,0,0,1,1.13-.2,2.39,2.39,0,0,1,1.85.71,2.86,2.86,0,0,1,.64,2v.26c0,.07,0,.12,0,.15Zm1.88-.55a4.75,4.75,0,0,0-.22-1.47.72.72,0,0,0-.68-.55.58.58,0,0,0-.45.19,1.46,1.46,0,0,0-.3.47,3.52,3.52,0,0,0-.16.64,5.85,5.85,0,0,0-.07.72Z"/><path class="cls-1" d="M69.47,147.71c0-.67,0-1.35-.08-2l.41,0a6.51,6.51,0,0,0,1,0l.41,0c0,.34,0,.69,0,1s0,.74,0,1.18,0,.94,0,1.51v2.24a.06.06,0,0,0,.06,0s.11-.06.24-.19.29-.31.48-.54.44-.52.7-.85.56-.7.87-1.11l.29.05h.58l.39-.05c-.1.12-.26.29-.47.5l-.64.66c-.22.22-.43.43-.62.64l-.43.45.21.34.4.64c.16.25.32.51.49.8l.48.8c.15.26.28.48.4.67l.22.37-.49,0h-1l-.45,0a1.5,1.5,0,0,1-.21-.3c-.09-.16-.2-.35-.31-.56s-.24-.42-.37-.65l-.36-.63c-.11-.19-.22-.35-.3-.47s-.16-.18-.19-.18-.05,0-.07.07a4.16,4.16,0,0,0,0,.45v1.08c0,.15,0,.31,0,.47s0,.31,0,.44a1.76,1.76,0,0,0,0,.28l-.44,0h-.88l-.44,0c0-.65.06-1.32.08-2s0-1.39,0-2.19v-.8C69.49,149.11,69.48,148.37,69.47,147.71Z"/><path class="cls-1" d="M77.23,149.93a2.77,2.77,0,0,1,.8-.8,2,2,0,0,1,1-.28,1.8,1.8,0,0,1,1.41.54,2.44,2.44,0,0,1,.5,1.71c0,.42,0,.78,0,1.1s0,.63,0,1,0,.54,0,.85,0,.6,0,.88l-.4,0h-1l-.4,0a14.54,14.54,0,0,0,.11-1.49c0-.57,0-1.23,0-2a1.89,1.89,0,0,0-.26-1.13.93.93,0,0,0-1.54.11,2.84,2.84,0,0,0-.26,1.32v.49c0,.5,0,1,0,1.4s0,.87.08,1.27l-.4,0h-1l-.4,0c0-.4.06-.83.08-1.27s0-.9,0-1.4v-.49c0-.49,0-1,0-1.39s0-.88-.08-1.32l.43.05h.87l.46-.05-.05.92Z"/><path class="cls-1" d="M82.37,146.71a1,1,0,1,1,.28.68A.94.94,0,0,1,82.37,146.71Zm.15,5c0-.49,0-1,0-1.39s0-.88-.08-1.32l.4.05h.51a5.55,5.55,0,0,0,.92-.06c0,.44-.07.88-.08,1.32s0,.9,0,1.39v.49c0,.5,0,1,0,1.4s0,.87.08,1.27l-.4,0h-1l-.4,0c0-.4.07-.83.08-1.27s0-.9,0-1.4Z"/><path class="cls-1" d="M86.06,153.76a1.7,1.7,0,0,0,.29.31,1.25,1.25,0,0,0,.41.23,1.55,1.55,0,0,0,.55.08.89.89,0,0,0,.66-.22.62.62,0,0,0,.24-.47.54.54,0,0,0-.21-.45,2,2,0,0,0-.52-.31c-.21-.1-.43-.19-.68-.29a3.44,3.44,0,0,1-.68-.37,1.87,1.87,0,0,1-.51-.57,1.66,1.66,0,0,1-.21-.88,1.91,1.91,0,0,1,.19-.89,1.84,1.84,0,0,1,.49-.61,2.24,2.24,0,0,1,.69-.35,2.56,2.56,0,0,1,.76-.12,2.52,2.52,0,0,1,.91.15,3.81,3.81,0,0,1,.82.43,2.92,2.92,0,0,0-.19.52c0,.19-.08.37-.11.55h-.34a1.28,1.28,0,0,0-.12-.32,1.85,1.85,0,0,0-.23-.34,1.38,1.38,0,0,0-.36-.26,1.09,1.09,0,0,0-.5-.1,1,1,0,0,0-.61.19.61.61,0,0,0-.25.51.57.57,0,0,0,.21.47,2.07,2.07,0,0,0,.53.32c.21.09.44.17.7.26a3.19,3.19,0,0,1,.69.35,1.89,1.89,0,0,1,.53.56,1.66,1.66,0,0,1,.22.88,2,2,0,0,1-.2.92,1.78,1.78,0,0,1-.52.63,2,2,0,0,1-.75.36,3.29,3.29,0,0,1-.89.11,3.1,3.1,0,0,1-1.68-.49,7.89,7.89,0,0,0,.18-1.17h.3A2.69,2.69,0,0,0,86.06,153.76Z"/><path class="cls-1" d="M90.5,147.71c0-.67,0-1.35-.07-2l.4,0a4.18,4.18,0,0,0,.51,0,4.43,4.43,0,0,0,.52,0l.4,0c0,.34,0,.69,0,1s0,.74,0,1.18,0,.94,0,1.51,0,1.24,0,2a1.1,1.1,0,0,0,0,.22,0,0,0,0,0,0,0s.11-.06.24-.19.29-.31.49-.54l.69-.85c.27-.33.56-.7.88-1.11l.28.05h.58l.39-.05c-.1.12-.26.29-.47.5s-.42.43-.64.66l-.62.64-.43.45c0,.05.11.16.22.34l.39.64c.16.25.32.51.49.8l.48.8.4.67.22.37-.49,0h-.94l-.46,0a1.62,1.62,0,0,1-.2-.3c-.1-.16-.2-.35-.32-.56s-.24-.42-.37-.65-.24-.44-.36-.63a4.94,4.94,0,0,0-.3-.47q-.14-.18-.18-.18s-.06,0-.07.07a3.19,3.19,0,0,0,0,.45v.69c0,.1,0,.23,0,.39s0,.31,0,.47,0,.31,0,.44a.93.93,0,0,0,0,.28l-.44,0h-.88l-.44,0c0-.65,0-1.32.07-2s0-1.39,0-2.19v-.8C90.52,149.11,90.52,148.37,90.5,147.71Z"/><path class="cls-1" d="M98.09,152a4.37,4.37,0,0,0,.1.91,2.49,2.49,0,0,0,.3.74,1.49,1.49,0,0,0,.51.49,1.44,1.44,0,0,0,.73.18,2.31,2.31,0,0,0,1.5-.55l.15.11-.27.68a2.39,2.39,0,0,1-.73.37,3.54,3.54,0,0,1-1.13.14,3.81,3.81,0,0,1-1.13-.16,2.33,2.33,0,0,1-1-.55,2.72,2.72,0,0,1-.65-1,3.85,3.85,0,0,1-.23-1.39,4.09,4.09,0,0,1,.21-1.38,2.69,2.69,0,0,1,.59-1,2.28,2.28,0,0,1,.9-.59,3.19,3.19,0,0,1,1.13-.2,2.39,2.39,0,0,1,1.85.71,2.86,2.86,0,0,1,.64,2v.26c0,.07,0,.12,0,.15Zm1.88-.55a4.75,4.75,0,0,0-.22-1.47.72.72,0,0,0-.68-.55.58.58,0,0,0-.45.19,1.29,1.29,0,0,0-.29.47,2.84,2.84,0,0,0-.17.64,5.85,5.85,0,0,0-.07.72Z"/><path class="cls-1" d="M60.29,159.3a1.3,1.3,0,0,0-.92.33,1.08,1.08,0,0,0-.08,1.51,3.46,3.46,0,0,0,.69.52c.28.15.58.3.89.44a4.65,4.65,0,0,1,.89.53,2.64,2.64,0,0,1,.69.76,2,2,0,0,1,.28,1.14,2.65,2.65,0,0,1-.23,1.11,2.58,2.58,0,0,1-.66.87,3,3,0,0,1-1,.55,4.27,4.27,0,0,1-1.33.19,4.58,4.58,0,0,1-1.17-.14,2.16,2.16,0,0,1-.79-.35q.12-.42.21-.78c0-.24.1-.49.14-.77h.23a1.84,1.84,0,0,0,.19.51,1.54,1.54,0,0,0,.84.71,2,2,0,0,0,.66.1,1.4,1.4,0,0,0,1.08-.37,1.22,1.22,0,0,0,.35-.87,1.07,1.07,0,0,0-.27-.76,2.55,2.55,0,0,0-.67-.52c-.27-.15-.56-.3-.88-.44a4.53,4.53,0,0,1-.88-.52,2.55,2.55,0,0,1-.67-.75,2.19,2.19,0,0,1-.27-1.14,2.49,2.49,0,0,1,.23-1.12,2.39,2.39,0,0,1,.6-.82,2.51,2.51,0,0,1,.87-.5,3,3,0,0,1,1.05-.17,3.63,3.63,0,0,1,1.15.16,2.72,2.72,0,0,1,.85.43c-.07.19-.14.37-.19.55l-.2.66h-.19A1.46,1.46,0,0,0,60.29,159.3Z"/><path class="cls-1" d="M63.9,159.91c0-.66,0-1.34-.07-2l.4,0,.51,0,.52,0,.4,0c0,.34,0,.69,0,1s0,.75,0,1.19,0,.94,0,1.51,0,1.24,0,2a1.16,1.16,0,0,0,0,.22,0,0,0,0,0,.05,0s.11-.07.24-.19.29-.31.49-.55.43-.52.69-.85.56-.69.88-1.1l.28,0,.29,0,.29,0,.39,0c-.1.12-.26.29-.47.5l-.64.65-.62.64-.43.46c0,.05.11.16.22.34l.39.64.49.79.48.81c.16.25.29.48.4.67s.19.31.22.37l-.49,0h-.94l-.46,0a1.62,1.62,0,0,1-.2-.3l-.32-.56-.37-.65q-.18-.35-.36-.63a4.94,4.94,0,0,0-.3-.47q-.13-.18-.18-.18s-.06,0-.07.07a3.19,3.19,0,0,0,0,.45v.68c0,.11,0,.24,0,.4s0,.31,0,.47,0,.3,0,.44a1.61,1.61,0,0,0,0,.28l-.44,0h-.88l-.44,0c0-.66.05-1.32.07-2s0-1.4,0-2.2v-.79C63.93,161.31,63.92,160.58,63.9,159.91Z"/><path class="cls-1" d="M69.69,164.32a3.73,3.73,0,0,1,.25-1.43,3.15,3.15,0,0,1,.66-1,2.85,2.85,0,0,1,1-.61,3.31,3.31,0,0,1,1.12-.2,2.93,2.93,0,0,1,2.21.81,3,3,0,0,1,.78,2.18,3.73,3.73,0,0,1-.22,1.34,2.91,2.91,0,0,1-.62,1,2.51,2.51,0,0,1-.94.63,3.38,3.38,0,0,1-1.21.21,3.91,3.91,0,0,1-1.08-.15A2.49,2.49,0,0,1,70,165.7,3.15,3.15,0,0,1,69.69,164.32Zm4.17-.45a4.15,4.15,0,0,0-.27-1.67.92.92,0,0,0-.89-.59,1,1,0,0,0-.88.66,4.85,4.85,0,0,0-.33,2.06,7.27,7.27,0,0,0,.06,1,3.1,3.1,0,0,0,.21.76,1.27,1.27,0,0,0,.36.5.84.84,0,0,0,.57.19C73.47,166.74,73.86,165.78,73.86,163.87Z"/><path class="cls-1" d="M76.93,159.91c0-.66,0-1.34-.08-2l.41,0,.51,0,.51,0,.4,0c0,.68-.05,1.36-.07,2s0,1.4,0,2.2v.79c0,.8,0,1.53,0,2.2s0,1.33.07,2l-.4,0h-1l-.41,0c0-.66.06-1.32.08-2s0-1.4,0-2.2v-.79C77,161.31,76.94,160.58,76.93,159.91Z"/><path class="cls-1" d="M81.67,164.17a4.47,4.47,0,0,0,.1.92,2.61,2.61,0,0,0,.3.74,1.59,1.59,0,0,0,.51.49,1.54,1.54,0,0,0,.73.17,2.26,2.26,0,0,0,1.5-.55l.15.11-.27.69a2.5,2.5,0,0,1-.73.37,4.33,4.33,0,0,1-2.26,0,2.48,2.48,0,0,1-1.59-1.51,3.55,3.55,0,0,1-.24-1.38,4.09,4.09,0,0,1,.21-1.38,2.73,2.73,0,0,1,.59-1,2.45,2.45,0,0,1,.9-.58,3.19,3.19,0,0,1,1.13-.2,2.37,2.37,0,0,1,1.85.71,2.86,2.86,0,0,1,.64,2V164a.45.45,0,0,1,0,.14Zm1.88-.55a4.68,4.68,0,0,0-.22-1.46.71.71,0,0,0-.68-.55.61.61,0,0,0-.45.18,1.39,1.39,0,0,0-.29.47,3.09,3.09,0,0,0-.17.65c0,.24-.06.48-.07.71Z"/></svg>